<?xml version="1.0" standalone="no"?><!DOCTYPE svg PUBLIC "-//W3C//DTD SVG 1.1//EN" "http://www.w3.org/Graphics/SVG/1.1/DTD/svg11.dtd"><svg t="1515913436024" class="icon" style="" viewBox="0 0 1030 1024" version="1.1" xmlns="http://www.w3.org/2000/svg" p-id="7096" xmlns:xlink="http://www.w3.org/1999/xlink" width="201.171875" height="200"><defs><style type="text/css"></style></defs><path d="M 857.732 1023.63 L 171.546 1023.63 C 76.9386 1023.63 0 947.09 0 853.025 L 0 316.828 C 0 222.764 76.9386 146.225 171.546 146.225 C 185.07 146.225 196.049 157.147 196.049 170.585 C 196.049 184.08 185.07 194.973 171.546 194.973 C 103.986 194.973 49.0051 249.639 49.0051 316.828 L 49.0051 853.025 C 49.0051 920.214 103.986 974.881 171.546 974.881 L 857.732 974.881 C 925.293 974.881 980.245 920.214 980.245 853.025 L 980.245 316.828 C 980.245 249.639 925.293 194.973 857.732 194.973 C 844.209 194.973 833.201 184.08 833.201 170.585 C 833.201 157.147 844.209 146.225 857.732 146.225 C 952.311 146.225 1029.28 222.764 1029.28 316.828 L 1029.28 853.025 C 1029.28 947.09 952.311 1023.63 857.732 1023.63 Z M 771.959 289.467 C 765.698 289.467 759.407 287.065 754.633 282.29 L 539.142 67.9717 L 539.142 598.622 C 539.142 665.811 594.122 720.477 661.683 720.477 C 675.207 720.477 686.186 731.37 686.186 744.837 C 686.186 758.303 675.207 769.196 661.683 769.196 C 567.075 769.196 490.137 692.687 490.137 598.622 L 490.137 67.9717 L 274.646 282.29 C 265.068 291.811 249.571 291.811 239.993 282.29 C 230.415 272.798 230.415 257.359 239.993 247.838 L 471.267 17.8516 C 495.169 -5.96481 534.11 -5.93622 558.012 17.8516 L 789.285 247.838 C 798.863 257.359 798.863 272.798 789.285 282.29 C 784.482 287.065 778.22 289.467 771.959 289.467 Z" p-id="7097"></path></svg>